<?xml version="1.0" standalone="no"?>
<svg viewBox="0 0 200 200" xmlns="http://www.w3.org/2000/svg">
  <path fill="#08BDBA" d="M38.1,-58.5C47.1,-45.9,50.6,-31.7,54.9,-17.9C59.3,-4.1,64.5,9.3,60.8,19.5C57.1,29.7,44.5,36.8,32.8,49.5C21.2,62.2,10.6,80.6,-2.3,83.7C-15.2,86.9,-30.3,74.8,-45.7,63.3C-61.1,51.8,-76.6,40.9,-80.7,26.6C-84.7,12.4,-77.2,-5.1,-67.5,-17.9C-57.8,-30.6,-45.8,-38.6,-34.2,-50.4C-22.6,-62.1,-11.3,-77.7,1.6,-79.9C14.6,-82.2,29.1,-71.1,38.1,-58.5Z" transform="translate(100 100)" />
</svg>
